<svg xmlns="http://www.w3.org/2000/svg" xmlns:xlink="http://www.w3.org/1999/xlink" width="200" height="107" viewBox="0 0 200 107">
  <defs>
    <radialGradient id="radialGradient-1" cx="29.05%" cy="18.64%" r="86.23%" fx="29.05%" fy="18.64%" gradientTransform="matrix(.48869 .84979 -.87246 .476 .31 -.15)">
      <stop offset="0%" stop-color="#CEAAF4"/>
      <stop offset="50.84%" stop-color="#9C75C5"/>
      <stop offset="100%" stop-color="#5C3586"/>
    </radialGradient>
    <ellipse id="path-2" cx="35.17" cy="36.11" rx="35.17" ry="36.11"/>
    <linearGradient id="linearGradient-4" x1="50%" x2="62.81%" y1="0%" y2="67.01%">
      <stop offset="0%" stop-color="#9FE3DA"/>
      <stop offset="56.36%" stop-color="#66C2B3"/>
      <stop offset="100%" stop-color="#45AA99"/>
    </linearGradient>
    <linearGradient id="linearGradient-5" x1="50%" x2="50%" y1="0%" y2="79.54%">
      <stop offset="0%" stop-color="#9FE3DA"/>
      <stop offset="56.36%" stop-color="#66C2B3"/>
      <stop offset="100%" stop-color="#45AA99"/>
    </linearGradient>
    <path id="path-6" d="M2.23 28.62h4.4v1.8c1-.85 1.91-1.43 2.72-1.76.82-.33 1.65-.5 2.5-.5 1.75 0 3.23.62 4.45 1.83 1.02 1.04 1.53 2.57 1.53 4.6V46.2h-4.36V38.5c0-2.1-.1-3.5-.28-4.19a2.87 2.87 0 0 0-1-1.58 2.76 2.76 0 0 0-1.73-.54c-.9 0-1.66.3-2.3.9a4.79 4.79 0 0 0-1.34 2.48c-.13.55-.2 1.74-.2 3.57v7.07H2.24V28.62zm21.6-7.24c.78 0 1.44.28 2 .84.55.56.83 1.24.83 2.04 0 .78-.27 1.45-.82 2-.55.56-1.2.84-1.97.84-.8 0-1.46-.28-2.02-.85a2.83 2.83 0 0 1-.83-2.06c0-.77.27-1.44.82-1.99a2.71 2.71 0 0 1 2-.82zm-2.21 7.24h4.43v17.59h-4.43V28.62zm8.39 0h4.43v2.02a7.53 7.53 0 0 1 2.51-1.86c.93-.4 1.93-.61 3.02-.61a5.6 5.6 0 0 1 5.1 3.17 7.03 7.03 0 0 1 9.22-2.3 5.04 5.04 0 0 1 2.05 2.28c.42.94.62 2.46.62 4.57v10.32h-4.44v-8.93c0-1.99-.25-3.34-.75-4.04-.5-.71-1.24-1.06-2.23-1.06-.75 0-1.43.21-2.03.64a3.82 3.82 0 0 0-1.33 1.79c-.3.76-.44 1.98-.44 3.66v7.94H41.3v-8.52c0-1.57-.12-2.71-.35-3.42a3.1 3.1 0 0 0-1.05-1.58 2.74 2.74 0 0 0-1.68-.51c-.73 0-1.4.21-2 .65a3.9 3.9 0 0 0-1.34 1.84c-.3.78-.44 2.02-.44 3.71v7.83h-4.43V28.62zm35.54-6.79v8.73a8.3 8.3 0 0 1 2.59-1.8c.92-.4 1.91-.6 2.97-.6 2.3 0 4.25.88 5.85 2.61a9.44 9.44 0 0 1 2.41 6.68c0 2.61-.83 4.8-2.49 6.57a7.84 7.84 0 0 1-8.73 2.1 8.63 8.63 0 0 1-2.6-1.77v1.86h-4.38V21.83h4.38zm4.64 10.41a4.6 4.6 0 0 0-3.46 1.42 5.13 5.13 0 0 0-1.38 3.72c0 1.56.46 2.83 1.38 3.8a4.57 4.57 0 0 0 3.46 1.44c1.35 0 2.48-.5 3.4-1.47a5.26 5.26 0 0 0 1.39-3.75 5.2 5.2 0 0 0-1.36-3.71 4.5 4.5 0 0 0-3.43-1.45zm12.37-10.4h4.41V46.2h-4.41V21.83zm26.03 16.85H94.41c.2 1.25.75 2.24 1.64 2.98.9.74 2.03 1.11 3.4 1.11 1.65 0 3.07-.58 4.26-1.73l3.72 1.75a8.78 8.78 0 0 1-3.33 2.91c-1.3.63-2.83.95-4.61.95-2.76 0-5.01-.87-6.75-2.61a8.88 8.88 0 0 1-2.6-6.54c0-2.68.87-4.91 2.6-6.68a8.72 8.72 0 0 1 6.5-2.66c2.78 0 5.03.88 6.76 2.66 1.74 1.77 2.6 4.11 2.6 7.02l-.01.84zm-4.43-3.47a4.43 4.43 0 0 0-1.72-2.4 4.99 4.99 0 0 0-2.99-.92c-1.22 0-2.3.35-3.23 1.04a5.76 5.76 0 0 0-1.62 2.28h9.56zM6.61 55.52v1.94a8.3 8.3 0 0 1 2.59-1.8c.93-.4 1.92-.6 2.98-.6 2.3 0 4.24.87 5.85 2.6a9.44 9.44 0 0 1 2.4 6.68c0 2.62-.82 4.81-2.48 6.57a7.84 7.84 0 0 1-8.73 2.1 8.63 8.63 0 0 1-2.6-1.77v8.3H2.22V55.52h4.38zm4.64 3.62a4.6 4.6 0 0 0-3.46 1.42 5.13 5.13 0 0 0-1.37 3.72c0 1.56.46 2.82 1.37 3.79a4.57 4.57 0 0 0 3.46 1.45c1.35 0 2.49-.5 3.4-1.48a5.26 5.26 0 0 0 1.39-3.75 5.2 5.2 0 0 0-1.36-3.7 4.5 4.5 0 0 0-3.43-1.45zm11.8-3.62h3.79v2.21c.41-.87.95-1.53 1.63-1.99a3.94 3.94 0 0 1 4.03-.22l-1.37 3.8a3.04 3.04 0 0 0-1.28-.4c-.68 0-1.26.43-1.72 1.27-.47.84-.7 2.49-.7 4.94V73.1h-4.37V55.52zm29.26 10.07H38.13c.2 1.25.75 2.24 1.64 2.98.89.74 2.02 1.1 3.4 1.1 1.65 0 3.07-.57 4.25-1.72l3.72 1.74a8.78 8.78 0 0 1-3.33 2.92c-1.3.63-2.83.95-4.6.95-2.77 0-5.01-.87-6.75-2.61a8.88 8.88 0 0 1-2.6-6.54c0-2.69.86-4.91 2.6-6.69a8.72 8.72 0 0 1 6.5-2.66c2.77 0 5.02.9 6.76 2.66 1.73 1.78 2.6 4.12 2.6 7.03l-.01.84zm-4.43-3.48a4.43 4.43 0 0 0-1.73-2.39 4.99 4.99 0 0 0-2.98-.92c-1.23 0-2.3.34-3.23 1.03a5.76 5.76 0 0 0-1.62 2.28h9.56zm18.77-4.14l-2.73 2.74c-1.11-1.1-2.12-1.65-3.03-1.65-.5 0-.88.1-1.16.31a.95.95 0 0 0-.42.79c0 .23.09.45.26.65.18.2.62.47 1.32.82l1.62.8c1.7.85 2.87 1.7 3.5 2.58.64.87.96 1.9.96 3.07 0 1.56-.57 2.86-1.72 3.9a6.6 6.6 0 0 1-4.62 1.58c-2.56 0-4.61-1-6.14-3.01l2.72-2.96c.51.6 1.12 1.1 1.81 1.46.7.38 1.32.56 1.86.56a2.2 2.2 0 0 0 1.4-.42c.36-.28.54-.6.54-.97 0-.68-.65-1.34-1.93-1.99l-1.49-.74c-2.84-1.43-4.26-3.23-4.26-5.38 0-1.4.53-2.58 1.6-3.57a5.84 5.84 0 0 1 4.12-1.48 7.15 7.15 0 0 1 5.79 2.91zm14.57 0l-2.74 2.74c-1.1-1.1-2.11-1.65-3.02-1.65-.5 0-.88.1-1.16.31a.95.95 0 0 0-.42.79c0 .23.08.45.26.65s.62.47 1.32.82l1.62.8c1.7.85 2.87 1.7 3.5 2.58.64.87.96 1.9.96 3.07 0 1.56-.57 2.86-1.72 3.9a6.6 6.6 0 0 1-4.62 1.58c-2.56 0-4.61-1-6.14-3.01l2.71-2.96c.52.6 1.13 1.1 1.82 1.46.7.38 1.32.56 1.85.56a2.2 2.2 0 0 0 1.41-.42c.36-.28.53-.6.53-.97 0-.68-.64-1.34-1.92-1.99l-1.49-.74c-2.84-1.43-4.27-3.23-4.27-5.38 0-1.4.54-2.58 1.61-3.57a5.84 5.84 0 0 1 4.12-1.48 7.15 7.15 0 0 1 5.79 2.91zM1.62.44h2.56v3.78H5.7v2.22H4.18v8.04H1.6V6.44H.3V4.22h1.32V.44zM7.1.26h2.56v5c.5-.43 1-.76 1.52-.97.5-.22 1.02-.33 1.54-.33 1.02 0 1.88.35 2.58 1.06.6.6.9 1.5.9 2.68v6.78h-2.54v-4.5c0-1.18-.06-1.99-.17-2.4-.12-.43-.3-.74-.58-.95-.28-.2-.61-.31-1.02-.31-.52 0-.97.17-1.34.52-.37.34-.63.81-.78 1.41-.07.3-.11 1.01-.11 2.11v4.12H7.1V.26zm21.87 9.84h-8.28c.12.73.44 1.3.96 1.74a3 3 0 0 0 1.99.64c.96 0 1.79-.33 2.48-1l2.17 1.01a5.12 5.12 0 0 1-4.63 2.26A5.18 5.18 0 0 1 18.2 9.4c0-1.57.5-2.86 1.5-3.9a5.09 5.09 0 0 1 3.8-1.55c1.62 0 2.93.52 3.95 1.55a5.6 5.6 0 0 1 1.51 4.1v.49zm-2.59-2.03a2.58 2.58 0 0 0-1-1.4 2.91 2.91 0 0 0-1.74-.53c-.72 0-1.35.2-1.89.6-.34.25-.65.7-.94 1.33h5.57z"/>
  </defs>
  <g id="Principle-export" fill="none" fill-rule="evenodd">
    <g id="Logo" transform="translate(0 -3)">
      <g id="Logo-type-Copy-3">
        <g id="Logo-Copy-4">
          <g id="Fruit" transform="translate(12.17 36.83)">
            <mask id="mask-3" fill="#fff">
              <use xlink:href="#path-2"/>
            </mask>
            <g id="Oval" fill-rule="nonzero">
              <use fill="url(#radialGradient-1)" xlink:href="#path-2"/>
              <use fill="#F56F23" style="mix-blend-mode:color" xlink:href="#path-2"/>
            </g>
            <path id="Path-3-Copy-3" fill="#A9A9A9" fill-rule="nonzero" d="M64.27-19.79C44.12-25.18 32.25 1.65 41.7 23.87c25.72-7.01 33.07-35.03 22.57-43.66z" mask="url(#mask-3)" style="mix-blend-mode:multiply"/>
            <path id="Path-3-Copy-4" fill="#A9A9A9" fill-rule="nonzero" d="M7.45 5.93c-17.36 0-25.75 26.1-10.53 43.34C12.67 33.64 18.96 11.54 7.45 5.93z" mask="url(#mask-3)" style="mix-blend-mode:multiply"/>
            <ellipse id="Oval-2" cx="23.66" cy="16.69" fill="#FFF" fill-rule="nonzero" mask="url(#mask-3)" rx="4.73" ry="4.86"/>
          </g>
          <path id="Path-3" fill="url(#linearGradient-4)" fill-rule="nonzero" d="M74.8 14.36C54.7 9.04 42.85 35.5 52.29 57.4c25.67-6.9 33-34.55 22.53-43.05z"/>
          <path id="Path-3-Copy-2" fill="url(#linearGradient-4)" fill-rule="nonzero" d="M45.42 4.25C29.71-3.64 6.1 17.4 15.14 38.66c24.1-4.12 41.69-26.82 30.28-34.4z" transform="rotate(8 31.06 20.61)"/>
          <path id="Path-3-Copy" fill="url(#linearGradient-5)" fill-rule="nonzero" d="M18.46 41.69C1.12 41.69-7.27 67.6 7.93 84.74 23.66 69.2 29.95 47.26 18.46 41.69z"/>
        </g>
        <g id="Logo/dark" transform="translate(91.03 15.91)">
          <mask id="mask-7" fill="#fff">
            <use xlink:href="#path-6"/>
          </mask>
          <use id="the-nimble-press" fill="#1E1E1E" xlink:href="#path-6"/>
        </g>
      </g>
    </g>
  </g>
</svg>
