<?xml version="1.0" encoding="UTF-8"?>
<svg width="200px" height="107px" viewBox="0 0 200 107" version="1.1" xmlns="http://www.w3.org/2000/svg" xmlns:xlink="http://www.w3.org/1999/xlink">
    <!-- Generator: Sketch 51.3 (57544) - http://www.bohemiancoding.com/sketch -->
    <title>Logo</title>
    <desc>Created with Sketch.</desc>
    <defs>
        <radialGradient cx="29.0549207%" cy="18.6392257%" fx="29.0549207%" fy="18.6392257%" r="86.2264688%" gradientTransform="translate(0.290549,0.186392),scale(1.000000,0.974016),rotate(60.745538),translate(-0.290549,-0.186392)" id="radialGradient-1">
            <stop stop-color="#CEAAF4" offset="0%"></stop>
            <stop stop-color="#9C75C5" offset="50.8399566%"></stop>
            <stop stop-color="#5C3586" offset="100%"></stop>
        </radialGradient>
        <ellipse id="path-2" cx="35.169216" cy="36.1074143" rx="35.169216" ry="36.1074143"></ellipse>
        <linearGradient x1="50%" y1="0%" x2="62.811195%" y2="67.0070348%" id="linearGradient-4">
            <stop stop-color="#9FE3DA" offset="0%"></stop>
            <stop stop-color="#66C2B3" offset="56.3583815%"></stop>
            <stop stop-color="#45AA99" offset="100%"></stop>
        </linearGradient>
        <linearGradient x1="50%" y1="0%" x2="50%" y2="79.5401878%" id="linearGradient-5">
            <stop stop-color="#9FE3DA" offset="0%"></stop>
            <stop stop-color="#66C2B3" offset="56.3583815%"></stop>
            <stop stop-color="#45AA99" offset="100%"></stop>
        </linearGradient>
        <path d="M2.23130934,28.6206897 L6.62925237,28.6206897 L6.62925237,30.4148707 C7.6317297,29.5743492 8.53987429,28.9897646 9.35371341,28.6610991 C10.1675525,28.3324337 11.000243,28.1681034 11.8518097,28.1681034 C13.5980606,28.1681034 15.0801957,28.7769336 16.2982595,29.9946121 C17.3222955,31.0291 17.8343058,32.5592571 17.8343058,34.5851293 L17.8343058,46.2068966 L13.4687006,46.2068966 L13.4687006,38.4967672 C13.4687006,36.3954636 13.3743829,35.0000034 13.1857447,34.3103448 C12.9971065,33.6206862 12.6683419,33.0953682 12.1994413,32.734375 C11.7305406,32.3733818 11.1511605,32.1928879 10.4612836,32.1928879 C9.56659956,32.1928879 8.7985841,32.4919151 8.1572142,33.0899784 C7.5158443,33.6880418 7.07120377,34.5150809 6.82327927,35.5711207 C6.69392736,36.1206924 6.62925237,37.3114133 6.62925237,39.143319 L6.62925237,46.2068966 L2.23130934,46.2068966 L2.23130934,28.6206897 Z M23.8329707,21.3793103 C24.6090822,21.3793103 25.2746956,21.65948 25.8298309,22.2198276 C26.3849662,22.7801752 26.6625297,23.4590477 26.6625297,24.2564655 C26.6625297,25.0431074 26.387661,25.7138981 25.8379153,26.2688578 C25.2881697,26.8238174 24.6306407,27.1012931 23.8653085,27.1012931 C23.0784177,27.1012931 22.4074148,26.8184296 21.8522795,26.252694 C21.2971442,25.6869584 21.0195807,25.000004 21.0195807,24.1918103 C21.0195807,23.4159444 21.2944494,22.7532355 21.844195,22.2036638 C22.3939406,21.6540921 23.0568593,21.3793103 23.8329707,21.3793103 Z M21.6178303,28.6206897 L26.0481112,28.6206897 L26.0481112,46.2068966 L21.6178303,46.2068966 L21.6178303,28.6206897 Z M30.0094937,28.6206897 L34.4397745,28.6206897 L34.4397745,30.6411638 C35.1943273,29.8114183 36.0324074,29.1918124 36.9540398,28.7823276 C37.8756721,28.3728428 38.8808292,28.1681034 39.9695411,28.1681034 C41.0690324,28.1681034 42.0607155,28.4374973 42.9446203,28.9762931 C43.828525,29.5150889 44.5399498,30.301719 45.0789161,31.3362069 C45.7795723,30.301719 46.6392107,29.5150889 47.657857,28.9762931 C48.6765033,28.4374973 49.789452,28.1681034 50.9967366,28.1681034 C52.2471384,28.1681034 53.3466131,28.4590488 54.2951938,29.0409483 C55.2437745,29.6228477 55.9255567,30.3825384 56.3405607,31.3200431 C56.7555648,32.2575478 56.9630637,33.782317 56.9630637,35.8943966 L56.9630637,46.2068966 L52.5166139,46.2068966 L52.5166139,37.2844828 C52.5166139,35.2909383 52.2686931,33.9412751 51.7728441,33.2354526 C51.2769951,32.5296301 50.5332328,32.1767241 49.5415348,32.1767241 C48.786982,32.1767241 48.1105894,32.3922392 47.5123368,32.8232759 C46.9140842,33.2543125 46.4694437,33.8496729 46.1784019,34.609375 C45.8873601,35.3690771 45.7418414,36.5894312 45.7418414,38.2704741 L45.7418414,46.2068966 L41.2953916,46.2068966 L41.2953916,37.6885776 C41.2953916,36.1152939 41.1795156,34.9757578 40.9477601,34.2699353 C40.7160046,33.5641129 40.3683765,33.0387948 39.9048655,32.6939655 C39.4413545,32.3491362 38.8808379,32.1767241 38.2232991,32.1767241 C37.4903049,32.1767241 36.8246915,32.3949332 36.2264389,32.8313578 C35.6281863,33.2677824 35.180851,33.8793064 34.8844195,34.6659483 C34.587988,35.4525901 34.4397745,36.6918019 34.4397745,38.3836207 L34.4397745,46.2068966 L30.0094937,46.2068966 L30.0094937,28.6206897 Z M65.548754,21.8318966 L65.548754,30.5603448 C66.3464241,29.762927 67.2087572,29.1648727 68.1357793,28.7661638 C69.0628013,28.3674549 70.0544844,28.1681034 71.1108584,28.1681034 C73.4068548,28.1681034 75.3578836,29.0355517 76.9640032,30.7704741 C78.5701227,32.5053966 79.3731705,34.7305899 79.3731705,37.4461207 C79.3731705,40.0646683 78.5431748,42.2548403 76.8831586,44.0167026 C75.2231424,45.7785648 73.2559449,46.6594828 70.9815071,46.6594828 C69.9682505,46.6594828 69.0250736,46.4789889 68.1519482,46.1179957 C67.2788228,45.7570025 66.4111,45.16703 65.548754,44.3480603 L65.548754,46.2068966 L61.1669798,46.2068966 L61.1669798,21.8318966 L65.548754,21.8318966 Z M70.1892306,32.2413793 C68.7986976,32.2413793 67.645327,32.7155125 66.7290843,33.6637931 C65.8128415,34.6120737 65.3547271,35.8512855 65.3547271,37.3814655 C65.3547271,38.9439733 65.8128415,40.2074305 66.7290843,41.171875 C67.645327,42.1363195 68.7986976,42.6185345 70.1892306,42.6185345 C71.5366464,42.6185345 72.6711534,42.1282377 73.5927858,41.1476293 C74.5144182,40.167021 74.9752275,38.9170335 74.9752275,37.3976293 C74.9752275,35.8890011 74.5225025,34.6524833 73.6170392,33.6880388 C72.7115758,32.7235943 71.5689844,32.2413793 70.1892306,32.2413793 Z M82.5584454,21.8318966 L86.9725574,21.8318966 L86.9725574,46.2068966 L82.5584454,46.2068966 L82.5584454,21.8318966 Z M108.590388,38.6907328 L94.4102551,38.6907328 C94.6150623,39.940739 95.1621049,40.9348023 96.0513993,41.6729526 C96.9406937,42.4111028 98.0752008,42.7801724 99.4549545,42.7801724 C101.104191,42.7801724 102.521652,42.2036696 103.707377,41.0506466 L107.426226,42.7963362 C106.499204,44.110998 105.38895,45.0835098 104.095431,45.7139009 C102.801912,46.3442919 101.265881,46.6594828 99.4872923,46.6594828 C96.7277849,46.6594828 94.4803291,45.7893406 92.7448576,44.0490302 C91.0093861,42.3087197 90.1416634,40.1293234 90.1416634,37.5107759 C90.1416634,34.8275728 91.0066913,32.5996856 92.7367731,30.8270474 C94.466855,29.0544092 96.6361618,28.1681034 99.2447587,28.1681034 C102.015045,28.1681034 104.267891,29.0544092 106.003362,30.8270474 C107.738834,32.5996856 108.606557,34.9407182 108.606557,37.8502155 L108.590388,38.6907328 Z M104.160107,35.2155172 C103.869065,34.2349089 103.295074,33.4375031 102.438118,32.8232759 C101.581162,32.2090487 100.586784,31.9019397 99.4549545,31.9019397 C98.2261113,31.9019397 97.1481949,32.2467638 96.2211729,32.9364224 C95.6390893,33.3674591 95.100131,34.1271497 94.604282,35.2155172 L104.160107,35.2155172 Z M6.61308347,55.5172414 L6.61308347,57.4568966 C7.41075359,56.6594788 8.27308674,56.0614244 9.20010878,55.6627155 C10.1271308,55.2640066 11.1188139,55.0646552 12.1751879,55.0646552 C14.4711843,55.0646552 16.4222131,55.9321034 18.0283327,57.6670259 C19.6344523,59.4019483 20.4375,61.6271416 20.4375,64.3426724 C20.4375,66.96122 19.6075043,69.1513921 17.9474881,70.9132543 C16.2874719,72.6751166 14.3202744,73.5560345 12.0458366,73.5560345 C11.03258,73.5560345 10.0894031,73.3755406 9.21627769,73.0145474 C8.34315228,72.6535542 7.47542955,72.0635817 6.61308347,71.2446121 L6.61308347,79.5366379 L2.23130934,79.5366379 L2.23130934,55.5172414 L6.61308347,55.5172414 Z M11.2535601,59.137931 C9.86302707,59.137931 8.70965648,59.6120642 7.79341377,60.5603448 C6.87717105,61.5086254 6.41905657,62.7478372 6.41905657,64.2780172 C6.41905657,65.8405251 6.87717105,67.1039822 7.79341377,68.0684267 C8.70965648,69.0328712 9.86302707,69.5150862 11.2535601,69.5150862 C12.6009759,69.5150862 13.7354829,69.0247894 14.6571153,68.044181 C15.5787477,67.0635727 16.039557,65.8135852 16.039557,64.294181 C16.039557,62.7855528 15.5868321,61.549035 14.6813687,60.5845905 C13.7759053,59.620146 12.6333139,59.137931 11.2535601,59.137931 Z M23.0568631,55.5172414 L26.8403877,55.5172414 L26.8403877,57.731681 C27.250002,56.8588318 27.7943498,56.196123 28.4734474,55.7435345 C29.1525449,55.290946 29.8963073,55.0646552 30.7047567,55.0646552 C31.276061,55.0646552 31.8743046,55.2155157 32.4995055,55.5172414 L31.1251483,59.3157328 C30.6077407,59.0571108 30.1819637,58.9278017 29.8478046,58.9278017 C29.168707,58.9278017 28.5947165,59.3480561 28.1258159,60.1885776 C27.6569152,61.029099 27.4224684,62.6777894 27.4224684,65.1346983 L27.4386373,65.9913793 L27.4386373,73.1034483 L23.0568631,73.1034483 L23.0568631,55.5172414 Z M52.3064181,65.5872845 L38.1262856,65.5872845 C38.3310928,66.8372907 38.8781354,67.8313541 39.7674298,68.5695043 C40.6567242,69.3076546 41.7912312,69.6767241 43.170985,69.6767241 C44.8202219,69.6767241 46.237682,69.1002213 47.4234078,67.9471983 L51.1422567,69.6928879 C50.2152347,71.0075497 49.1049808,71.9800615 47.8114616,72.6104526 C46.5179425,73.2408437 44.9819116,73.5560345 43.2033228,73.5560345 C40.4438153,73.5560345 38.1963595,72.6858923 36.4608881,70.9455819 C34.7254166,69.2052715 33.8576938,67.0258752 33.8576938,64.4073276 C33.8576938,61.7241245 34.7227218,59.4962373 36.4528036,57.7235991 C38.1828854,55.950961 40.3521923,55.0646552 42.9607892,55.0646552 C45.731076,55.0646552 47.9839213,55.950961 49.7193928,57.7235991 C51.4548643,59.4962373 52.322587,61.8372699 52.322587,64.7467672 L52.3064181,65.5872845 Z M47.8761373,62.112069 C47.5850955,61.1314606 47.011105,60.3340548 46.1541485,59.7198276 C45.2971921,59.1056004 44.3028142,58.7984914 43.170985,58.7984914 C41.9421418,58.7984914 40.8642254,59.1433155 39.9372033,59.8329741 C39.3551197,60.2640108 38.8161615,61.0237015 38.3203125,62.112069 L47.8761373,62.112069 Z M66.6482397,57.9741379 L63.9156942,60.705819 C62.8054236,59.6066755 61.7975718,59.0571121 60.8921084,59.0571121 C60.3962594,59.0571121 60.0082095,59.1621757 59.727947,59.372306 C59.4476845,59.5824364 59.3075554,59.8437484 59.3075554,60.15625 C59.3075554,60.3933202 59.3964835,60.6115292 59.5743424,60.8108836 C59.7522012,61.0102381 60.1914522,61.2823259 60.8921084,61.6271552 L62.5089992,62.4353448 C64.2121327,63.2758663 65.3816721,64.1325387 66.0176523,65.0053879 C66.6536325,65.8782371 66.9716179,66.9019338 66.9716179,68.0765086 C66.9716179,69.6390164 66.3976274,70.9428827 65.2496292,71.9881466 C64.1016309,73.0334104 62.5629052,73.5560345 60.6334059,73.5560345 C58.0679263,73.5560345 56.019885,72.5538893 54.4892207,70.549569 L57.2055973,67.5915948 C57.723005,68.1950461 58.329333,68.682649 59.0245995,69.0544181 C59.719866,69.4261872 60.3369732,69.612069 60.8759395,69.612069 C61.4580231,69.612069 61.9269167,69.4719842 62.2826345,69.1918103 C62.6383523,68.9116365 62.8162085,68.5883639 62.8162085,68.2219828 C62.8162085,67.5431001 62.1748482,66.8803912 60.8921084,66.2338362 L59.4045688,65.4903017 C56.5588268,64.0571049 55.1359771,62.2629418 55.1359771,60.1077586 C55.1359771,58.7176655 55.6722405,57.5296386 56.7447834,56.5436422 C57.8173264,55.5576459 59.188975,55.0646552 60.8597706,55.0646552 C62.0023791,55.0646552 63.0776008,55.3151915 64.0854678,55.8162716 C65.0933347,56.3173516 65.9475835,57.0366332 66.6482397,57.9741379 Z M81.216426,57.9741379 L78.4838805,60.705819 C77.37361,59.6066755 76.3657581,59.0571121 75.4602947,59.0571121 C74.9644457,59.0571121 74.5763958,59.1621757 74.2961333,59.372306 C74.0158708,59.5824364 73.8757417,59.8437484 73.8757417,60.15625 C73.8757417,60.3933202 73.9646698,60.6115292 74.1425287,60.8108836 C74.3203876,61.0102381 74.7596385,61.2823259 75.4602947,61.6271552 L77.0771855,62.4353448 C78.780319,63.2758663 79.9498584,64.1325387 80.5858386,65.0053879 C81.2218188,65.8782371 81.5398042,66.9019338 81.5398042,68.0765086 C81.5398042,69.6390164 80.9658137,70.9428827 79.8178155,71.9881466 C78.6698172,73.0334104 77.1310915,73.5560345 75.2015922,73.5560345 C72.6361126,73.5560345 70.5880713,72.5538893 69.057407,70.549569 L71.7737836,67.5915948 C72.2911913,68.1950461 72.8975193,68.682649 73.5927858,69.0544181 C74.2880523,69.4261872 74.9051595,69.612069 75.4441258,69.612069 C76.0262094,69.612069 76.495103,69.4719842 76.8508208,69.1918103 C77.2065386,68.9116365 77.3843948,68.5883639 77.3843948,68.2219828 C77.3843948,67.5431001 76.7430345,66.8803912 75.4602947,66.2338362 L73.9727551,65.4903017 C71.1270131,64.0571049 69.7041634,62.2629418 69.7041634,60.1077586 C69.7041634,58.7176655 70.2404268,57.5296386 71.3129697,56.5436422 C72.3855127,55.5576459 73.7571613,55.0646552 75.4279569,55.0646552 C76.5705654,55.0646552 77.6457871,55.3151915 78.6536541,55.8162716 C79.6615211,56.3173516 80.5157698,57.0366332 81.216426,57.9741379 Z M1.6128486,0.443157328 L4.17831537,0.443157328 L4.17831537,4.22413793 L5.7062772,4.22413793 L5.7062772,6.43992457 L4.17831537,6.43992457 L4.17831537,14.4827586 L1.6128486,14.4827586 L1.6128486,6.43992457 L0.292387757,6.43992457 L0.292387757,4.22413793 L1.6128486,4.22413793 L1.6128486,0.443157328 Z M7.10219294,0.264008621 L9.65822785,0.264008621 L9.65822785,5.26131466 C10.1612631,4.82758404 10.6674347,4.50229096 11.1767578,4.28542565 C11.686081,4.06856034 12.2016843,3.96012931 12.7235834,3.96012931 C13.7422297,3.96012931 14.6005206,4.31213728 15.298482,5.01616379 C15.8958363,5.62590104 16.194509,6.52163561 16.194509,7.7033944 L16.194509,14.4827586 L13.6573378,14.4827586 L13.6573378,9.98518319 C13.6573378,8.79713846 13.6007472,7.9925488 13.4875643,7.57139009 C13.3743814,7.15023137 13.1810301,6.83593854 12.9075047,6.62850216 C12.6339793,6.42106577 12.2960076,6.31734914 11.8935794,6.31734914 C11.3716804,6.31734914 10.9236714,6.4902102 10.5495389,6.8359375 C10.1754065,7.1816648 9.91603283,7.65310405 9.77141021,8.2502694 C9.69595492,8.55828099 9.65822785,9.26229694 9.65822785,10.3623384 L9.65822785,14.4827586 L7.10219294,14.4827586 L7.10219294,0.264008621 Z M28.9652517,10.0983297 L20.6935077,10.0983297 C20.8129786,10.8275001 21.1320868,11.4073703 21.6508418,11.837958 C22.1695969,12.2685456 22.8313927,12.4838362 23.636249,12.4838362 C24.5983039,12.4838362 25.4251556,12.1475429 26.116829,11.4749461 L28.2861575,12.4932651 C27.7453947,13.2601511 27.0977466,13.8274497 26.3431937,14.1951778 C25.5886409,14.5629059 24.6926229,14.7467672 23.6551127,14.7467672 C22.0454,14.7467672 20.7343842,14.2391843 19.7220258,13.2240032 C18.7096674,12.2088222 18.2034958,10.9375076 18.2034958,9.41002155 C18.2034958,7.84481976 18.7080955,6.54521889 19.7173099,5.51117996 C20.7265243,4.47714102 21.9919533,3.96012931 23.5136348,3.96012931 C25.1296354,3.96012931 26.4437952,4.47714102 27.4561536,5.51117996 C28.468512,6.54521889 28.9746835,7.91082126 28.9746835,9.60802802 L28.9652517,10.0983297 Z M26.3809212,8.07112069 C26.2111468,7.49909915 25.876319,7.03394576 25.3764278,6.67564655 C24.8765365,6.31734735 24.2964827,6.13820043 23.636249,6.13820043 C22.9194238,6.13820043 22.2906392,6.33934784 21.7498764,6.74164871 C21.4103276,6.99308675 21.0959353,7.43623964 20.8066901,8.07112069 L26.3809212,8.07112069 Z" id="path-6"></path>
    </defs>
    <g id="Principle-export" stroke="none" stroke-width="1" fill="none" fill-rule="evenodd">
        <g id="Logo" transform="translate(0.000000, -3.000000)">
            <g id="Logo-type-Copy-3">
                <g>
                    <g id="Logo-Copy-4">
                        <g id="Fruit" transform="translate(12.173959, 36.825532)">
                            <mask id="mask-3" fill="white">
                                <use xlink:href="#path-2"></use>
                            </mask>
                            <g id="Oval" fill-rule="nonzero">
                                <use fill="url(#radialGradient-1)" xlink:href="#path-2"></use>
                                <use fill="#F56F23" style="mix-blend-mode: color;" xlink:href="#path-2"></use>
                            </g>
                            <path d="M64.27346,-19.7860473 C44.1246683,-25.1752136 32.253726,1.6471457 41.7021721,23.8661998 C67.422942,16.8602836 74.7717334,-11.1633812 64.27346,-19.7860473 Z" id="Path-3-Copy-3" fill="#A9A9A9" fill-rule="nonzero" style="mix-blend-mode: multiply;" mask="url(#mask-3)"></path>
                            <path d="M7.45383122,5.92808294 C-9.90614978,5.92808294 -18.3047685,32.0206984 -3.08227204,49.2660306 C12.6651381,33.6374483 18.9641022,11.5418664 7.45383122,5.92808294 Z" id="Path-3-Copy-4" fill="#A9A9A9" fill-rule="nonzero" style="mix-blend-mode: multiply;" mask="url(#mask-3)"></path>
                            <ellipse id="Oval-2" fill="#FFFFFF" fill-rule="nonzero" mask="url(#mask-3)" cx="23.6576282" cy="16.6904821" rx="4.73431754" ry="4.86061346"></ellipse>
                        </g>
                        <path d="M74.8067241,14.3560684 C54.6935759,9.04056326 42.8436334,35.4963042 52.2753651,57.4116598 C77.9506347,50.5015031 85.286426,22.8608766 74.8067241,14.3560684 Z" id="Path-3" fill="url(#linearGradient-4)" fill-rule="nonzero"></path>
                        <path d="M45.419785,4.25255889 C29.7053258,-3.63952794 6.09742358,17.3938287 15.1387478,38.6635793 C39.2489459,34.5364469 56.8292986,11.8372186 45.419785,4.25255889 Z" id="Path-3-Copy-2" fill="url(#linearGradient-4)" fill-rule="nonzero" transform="translate(31.059204, 20.609872) rotate(8.000000) translate(-31.059204, -20.609872) "></path>
                        <path d="M18.4552702,41.6861456 C1.11572254,41.6861456 -7.27301073,67.6060866 7.93156833,84.7372934 C23.6604432,69.2121373 29.9519932,47.2627785 18.4552702,41.6861456 Z" id="Path-3-Copy" fill="url(#linearGradient-5)" fill-rule="nonzero"></path>
                    </g>
                    <g id="Logo/dark" transform="translate(91.034483, 15.911950)">
                        <mask id="mask-7" fill="white">
                            <use xlink:href="#path-6"></use>
                        </mask>
                        <use id="the-nimble-press" fill="#1E1E1E" fill-rule="evenodd" xlink:href="#path-6"></use>
                    </g>
                </g>
            </g>
        </g>
    </g>
</svg>